<mxfile host="app.diagrams.net" modified="2024-03-08T16:31:31.552Z" agent="Mozilla/5.0 (Windows NT 10.0; Win64; x64) AppleWebKit/537.36 (KHTML, like Gecko) Chrome/122.0.0.0 Safari/537.36" etag="4_ASryGv9YBrWJVIC-IC" version="24.0.2" type="github">
  <diagram name="PÃ¡gina-1" id="hzcNKE6raNdsnJLooymA">
    <mxGraphModel dx="880" dy="434" grid="1" gridSize="10" guides="1" tooltips="1" connect="1" arrows="1" fold="1" page="1" pageScale="1" pageWidth="827" pageHeight="1169" math="0" shadow="0">
      <root>
        <mxCell id="0" />
        <mxCell id="1" parent="0" />
        <mxCell id="22o2V8kA4_nBRsVuC68j-23" value="" style="edgeStyle=orthogonalEdgeStyle;rounded=1;orthogonalLoop=1;jettySize=auto;html=1;" edge="1" parent="1" source="2" target="22o2V8kA4_nBRsVuC68j-12">
          <mxGeometry relative="1" as="geometry" />
        </mxCell>
        <mxCell id="2" value="Usuario" style="swimlane;fontStyle=1;align=center;verticalAlign=top;childLayout=stackLayout;horizontal=1;startSize=25.7;horizontalStack=0;resizeParent=1;resizeParentMax=0;resizeLast=0;collapsible=0;marginBottom=0;rounded=1;" parent="1" vertex="1">
          <mxGeometry x="8" y="8" width="162" height="316" as="geometry" />
        </mxCell>
        <mxCell id="3" value="+ usuarioId: int" style="text;strokeColor=none;fillColor=none;align=left;verticalAlign=top;spacingLeft=4;spacingRight=4;overflow=hidden;rotatable=0;points=[[0,0.5],[1,0.5]];portConstraint=eastwest;rounded=1;" parent="2" vertex="1">
          <mxGeometry y="25.7" width="162" height="26" as="geometry" />
        </mxCell>
        <mxCell id="4" value="+ nomeUsuario: string" style="text;strokeColor=none;fillColor=none;align=left;verticalAlign=top;spacingLeft=4;spacingRight=4;overflow=hidden;rotatable=0;points=[[0,0.5],[1,0.5]];portConstraint=eastwest;rounded=1;" parent="2" vertex="1">
          <mxGeometry y="51.7" width="162" height="26" as="geometry" />
        </mxCell>
        <mxCell id="5" value="+ email: string" style="text;strokeColor=none;fillColor=none;align=left;verticalAlign=top;spacingLeft=4;spacingRight=4;overflow=hidden;rotatable=0;points=[[0,0.5],[1,0.5]];portConstraint=eastwest;rounded=1;" parent="2" vertex="1">
          <mxGeometry y="77.7" width="162" height="26" as="geometry" />
        </mxCell>
        <mxCell id="6" value="+ senha: string" style="text;strokeColor=none;fillColor=none;align=left;verticalAlign=top;spacingLeft=4;spacingRight=4;overflow=hidden;rotatable=0;points=[[0,0.5],[1,0.5]];portConstraint=eastwest;rounded=1;" parent="2" vertex="1">
          <mxGeometry y="103.7" width="162" height="26" as="geometry" />
        </mxCell>
        <mxCell id="7" value="+ criadoEm: Date" style="text;strokeColor=none;fillColor=none;align=left;verticalAlign=top;spacingLeft=4;spacingRight=4;overflow=hidden;rotatable=0;points=[[0,0.5],[1,0.5]];portConstraint=eastwest;rounded=1;" parent="2" vertex="1">
          <mxGeometry y="129.7" width="162" height="26" as="geometry" />
        </mxCell>
        <mxCell id="8" value="+ ultimoAcesso: Date" style="text;strokeColor=none;fillColor=none;align=left;verticalAlign=top;spacingLeft=4;spacingRight=4;overflow=hidden;rotatable=0;points=[[0,0.5],[1,0.5]];portConstraint=eastwest;rounded=1;" parent="2" vertex="1">
          <mxGeometry y="155.7" width="162" height="26" as="geometry" />
        </mxCell>
        <mxCell id="9" value="+ ativo: bool" style="text;strokeColor=none;fillColor=none;align=left;verticalAlign=top;spacingLeft=4;spacingRight=4;overflow=hidden;rotatable=0;points=[[0,0.5],[1,0.5]];portConstraint=eastwest;rounded=1;" parent="2" vertex="1">
          <mxGeometry y="181.7" width="162" height="26" as="geometry" />
        </mxCell>
        <mxCell id="10" style="line;strokeWidth=1;fillColor=none;align=left;verticalAlign=middle;spacingTop=-1;spacingLeft=3;spacingRight=3;rotatable=0;labelPosition=right;points=[];portConstraint=eastwest;strokeColor=inherit;rounded=1;" parent="2" vertex="1">
          <mxGeometry y="207.7" width="162" height="8" as="geometry" />
        </mxCell>
        <mxCell id="22o2V8kA4_nBRsVuC68j-28" value="+ adicionarUsuario(): void" style="text;strokeColor=none;fillColor=none;align=left;verticalAlign=top;spacingLeft=4;spacingRight=4;overflow=hidden;rotatable=0;points=[[0,0.5],[1,0.5]];portConstraint=eastwest;rounded=1;" vertex="1" parent="2">
          <mxGeometry y="215.7" width="162" height="26" as="geometry" />
        </mxCell>
        <mxCell id="11" value="+ atualizaUsuario(): void" style="text;strokeColor=none;fillColor=none;align=left;verticalAlign=top;spacingLeft=4;spacingRight=4;overflow=hidden;rotatable=0;points=[[0,0.5],[1,0.5]];portConstraint=eastwest;rounded=1;" parent="2" vertex="1">
          <mxGeometry y="241.7" width="162" height="26" as="geometry" />
        </mxCell>
        <mxCell id="12" value="+ removeUsuario(): void" style="text;strokeColor=none;fillColor=none;align=left;verticalAlign=top;spacingLeft=4;spacingRight=4;overflow=hidden;rotatable=0;points=[[0,0.5],[1,0.5]];portConstraint=eastwest;rounded=1;" parent="2" vertex="1">
          <mxGeometry y="267.7" width="162" height="26" as="geometry" />
        </mxCell>
        <mxCell id="22o2V8kA4_nBRsVuC68j-26" value="+ obterUsuario(): void" style="text;strokeColor=none;fillColor=none;align=left;verticalAlign=top;spacingLeft=4;spacingRight=4;overflow=hidden;rotatable=0;points=[[0,0.5],[1,0.5]];portConstraint=eastwest;rounded=1;" vertex="1" parent="2">
          <mxGeometry y="293.7" width="162" height="22.3" as="geometry" />
        </mxCell>
        <mxCell id="22o2V8kA4_nBRsVuC68j-12" value="Pessoa" style="swimlane;fontStyle=1;align=center;verticalAlign=top;childLayout=stackLayout;horizontal=1;startSize=25.7;horizontalStack=0;resizeParent=1;resizeParentMax=0;resizeLast=0;collapsible=0;marginBottom=0;rounded=1;" vertex="1" parent="1">
          <mxGeometry x="250" y="6.650000000000006" width="162" height="345.7" as="geometry" />
        </mxCell>
        <mxCell id="22o2V8kA4_nBRsVuC68j-13" value="+ nr_seq_pessoa: int" style="text;strokeColor=none;fillColor=none;align=left;verticalAlign=top;spacingLeft=4;spacingRight=4;overflow=hidden;rotatable=0;points=[[0,0.5],[1,0.5]];portConstraint=eastwest;rounded=1;" vertex="1" parent="22o2V8kA4_nBRsVuC68j-12">
          <mxGeometry y="25.7" width="162" height="26" as="geometry" />
        </mxCell>
        <mxCell id="22o2V8kA4_nBRsVuC68j-14" value="+ nm_pessoa: string" style="text;strokeColor=none;fillColor=none;align=left;verticalAlign=top;spacingLeft=4;spacingRight=4;overflow=hidden;rotatable=0;points=[[0,0.5],[1,0.5]];portConstraint=eastwest;rounded=1;" vertex="1" parent="22o2V8kA4_nBRsVuC68j-12">
          <mxGeometry y="51.7" width="162" height="26" as="geometry" />
        </mxCell>
        <mxCell id="22o2V8kA4_nBRsVuC68j-15" value="+ dt_nascimento: Date" style="text;strokeColor=none;fillColor=none;align=left;verticalAlign=top;spacingLeft=4;spacingRight=4;overflow=hidden;rotatable=0;points=[[0,0.5],[1,0.5]];portConstraint=eastwest;rounded=1;" vertex="1" parent="22o2V8kA4_nBRsVuC68j-12">
          <mxGeometry y="77.7" width="162" height="26" as="geometry" />
        </mxCell>
        <mxCell id="22o2V8kA4_nBRsVuC68j-16" value="+ nr_cpf: Number" style="text;strokeColor=none;fillColor=none;align=left;verticalAlign=top;spacingLeft=4;spacingRight=4;overflow=hidden;rotatable=0;points=[[0,0.5],[1,0.5]];portConstraint=eastwest;rounded=1;" vertex="1" parent="22o2V8kA4_nBRsVuC68j-12">
          <mxGeometry y="103.7" width="162" height="26" as="geometry" />
        </mxCell>
        <mxCell id="22o2V8kA4_nBRsVuC68j-17" value="+ cd_sexo: int" style="text;strokeColor=none;fillColor=none;align=left;verticalAlign=top;spacingLeft=4;spacingRight=4;overflow=hidden;rotatable=0;points=[[0,0.5],[1,0.5]];portConstraint=eastwest;rounded=1;" vertex="1" parent="22o2V8kA4_nBRsVuC68j-12">
          <mxGeometry y="129.7" width="162" height="26" as="geometry" />
        </mxCell>
        <mxCell id="22o2V8kA4_nBRsVuC68j-18" value="+ criado_em: Date" style="text;strokeColor=none;fillColor=none;align=left;verticalAlign=top;spacingLeft=4;spacingRight=4;overflow=hidden;rotatable=0;points=[[0,0.5],[1,0.5]];portConstraint=eastwest;rounded=1;" vertex="1" parent="22o2V8kA4_nBRsVuC68j-12">
          <mxGeometry y="155.7" width="162" height="26" as="geometry" />
        </mxCell>
        <mxCell id="22o2V8kA4_nBRsVuC68j-30" value="+ criado_por: string" style="text;strokeColor=none;fillColor=none;align=left;verticalAlign=top;spacingLeft=4;spacingRight=4;overflow=hidden;rotatable=0;points=[[0,0.5],[1,0.5]];portConstraint=eastwest;rounded=1;" vertex="1" parent="22o2V8kA4_nBRsVuC68j-12">
          <mxGeometry y="181.7" width="162" height="26" as="geometry" />
        </mxCell>
        <mxCell id="22o2V8kA4_nBRsVuC68j-29" value="+ atualizado_em: Date" style="text;strokeColor=none;fillColor=none;align=left;verticalAlign=top;spacingLeft=4;spacingRight=4;overflow=hidden;rotatable=0;points=[[0,0.5],[1,0.5]];portConstraint=eastwest;rounded=1;" vertex="1" parent="22o2V8kA4_nBRsVuC68j-12">
          <mxGeometry y="207.7" width="162" height="26" as="geometry" />
        </mxCell>
        <mxCell id="22o2V8kA4_nBRsVuC68j-31" value="+ atualizado_por: string" style="text;strokeColor=none;fillColor=none;align=left;verticalAlign=top;spacingLeft=4;spacingRight=4;overflow=hidden;rotatable=0;points=[[0,0.5],[1,0.5]];portConstraint=eastwest;rounded=1;" vertex="1" parent="22o2V8kA4_nBRsVuC68j-12">
          <mxGeometry y="233.7" width="162" height="26" as="geometry" />
        </mxCell>
        <mxCell id="22o2V8kA4_nBRsVuC68j-19" value="+ ativo: bool" style="text;strokeColor=none;fillColor=none;align=left;verticalAlign=top;spacingLeft=4;spacingRight=4;overflow=hidden;rotatable=0;points=[[0,0.5],[1,0.5]];portConstraint=eastwest;rounded=1;" vertex="1" parent="22o2V8kA4_nBRsVuC68j-12">
          <mxGeometry y="259.7" width="162" height="26" as="geometry" />
        </mxCell>
        <mxCell id="22o2V8kA4_nBRsVuC68j-20" style="line;strokeWidth=1;fillColor=none;align=left;verticalAlign=middle;spacingTop=-1;spacingLeft=3;spacingRight=3;rotatable=0;labelPosition=right;points=[];portConstraint=eastwest;strokeColor=inherit;rounded=1;" vertex="1" parent="22o2V8kA4_nBRsVuC68j-12">
          <mxGeometry y="285.7" width="162" height="8" as="geometry" />
        </mxCell>
        <mxCell id="22o2V8kA4_nBRsVuC68j-21" value="+ updateUser(): void" style="text;strokeColor=none;fillColor=none;align=left;verticalAlign=top;spacingLeft=4;spacingRight=4;overflow=hidden;rotatable=0;points=[[0,0.5],[1,0.5]];portConstraint=eastwest;rounded=1;" vertex="1" parent="22o2V8kA4_nBRsVuC68j-12">
          <mxGeometry y="293.7" width="162" height="26" as="geometry" />
        </mxCell>
        <mxCell id="22o2V8kA4_nBRsVuC68j-22" value="+ deleteUser(): void" style="text;strokeColor=none;fillColor=none;align=left;verticalAlign=top;spacingLeft=4;spacingRight=4;overflow=hidden;rotatable=0;points=[[0,0.5],[1,0.5]];portConstraint=eastwest;rounded=1;" vertex="1" parent="22o2V8kA4_nBRsVuC68j-12">
          <mxGeometry y="319.7" width="162" height="26" as="geometry" />
        </mxCell>
        <mxCell id="22o2V8kA4_nBRsVuC68j-34" value="Endereco" style="swimlane;fontStyle=0;childLayout=stackLayout;horizontal=1;startSize=30;horizontalStack=0;resizeParent=1;resizeParentMax=0;resizeLast=0;collapsible=1;marginBottom=0;whiteSpace=wrap;html=1;rounded=1;" vertex="1" parent="1">
          <mxGeometry x="530" y="8" width="140" height="120" as="geometry" />
        </mxCell>
        <mxCell id="22o2V8kA4_nBRsVuC68j-35" value="+ ds_endereco: string" style="text;strokeColor=none;fillColor=none;align=left;verticalAlign=middle;spacingLeft=4;spacingRight=4;overflow=hidden;points=[[0,0.5],[1,0.5]];portConstraint=eastwest;rotatable=0;whiteSpace=wrap;html=1;" vertex="1" parent="22o2V8kA4_nBRsVuC68j-34">
          <mxGeometry y="30" width="140" height="30" as="geometry" />
        </mxCell>
        <mxCell id="22o2V8kA4_nBRsVuC68j-36" value="Item 2" style="text;strokeColor=none;fillColor=none;align=left;verticalAlign=middle;spacingLeft=4;spacingRight=4;overflow=hidden;points=[[0,0.5],[1,0.5]];portConstraint=eastwest;rotatable=0;whiteSpace=wrap;html=1;" vertex="1" parent="22o2V8kA4_nBRsVuC68j-34">
          <mxGeometry y="60" width="140" height="30" as="geometry" />
        </mxCell>
        <mxCell id="22o2V8kA4_nBRsVuC68j-37" value="Item 3" style="text;strokeColor=none;fillColor=none;align=left;verticalAlign=middle;spacingLeft=4;spacingRight=4;overflow=hidden;points=[[0,0.5],[1,0.5]];portConstraint=eastwest;rotatable=0;whiteSpace=wrap;html=1;" vertex="1" parent="22o2V8kA4_nBRsVuC68j-34">
          <mxGeometry y="90" width="140" height="30" as="geometry" />
        </mxCell>
        <mxCell id="22o2V8kA4_nBRsVuC68j-33" style="edgeStyle=orthogonalEdgeStyle;rounded=1;orthogonalLoop=1;jettySize=auto;html=1;exitX=1;exitY=0.5;exitDx=0;exitDy=0;entryX=-0.014;entryY=0.2;entryDx=0;entryDy=0;entryPerimeter=0;" edge="1" parent="1" source="22o2V8kA4_nBRsVuC68j-18" target="22o2V8kA4_nBRsVuC68j-36">
          <mxGeometry relative="1" as="geometry">
            <mxPoint x="530" y="170" as="targetPoint" />
          </mxGeometry>
        </mxCell>
      </root>
    </mxGraphModel>
  </diagram>
</mxfile>
